<svg id="Layer_1" height="512" viewBox="0 0 512 512" width="512" xmlns="http://www.w3.org/2000/svg" data-name="Layer 1"><path d="m240.979 483h-54.979v-105h-12v105h-55.837a6 6 0 0 0 0 12h122.816a6 6 0 1 0 0-12z" fill="#d4e1f4"/><path d="m410.55 395.82 24.23 94.3h-109.43l24.19-94.16.04.01h60.4z" fill="#49bdff"/><path d="m410.44 395.39.11.43-.57.15h-60.4l-.04-.01.15-.57v-29.89h60.29.46z" fill="#3090fc"/><path d="m430.78 268.67-20.34 96.3v.53h-.46-60.29v-.53l-20.34-96.3z" fill="#49bdff"/><path d="m238 99.91v.05h-49.54a50.53 50.53 0 0 1 14.32-35.27z" fill="#fff27d"/><path d="m238 50v49.91l-35.22-35.22a50.54 50.54 0 0 1 35.21-15.37z" fill="#f9d438"/><path d="m238.31 99.96h-.26l-.05-.05v-49.91l-.01-.68c.39-.02.78-.02 1.17-.02a50.561 50.561 0 0 1 35.76 14.76l-.17.17-36.21 36.22h-.01l-.22-.23z" fill="#fff27d"/><path d="m274.75 64.23.17-.17a50.524 50.524 0 0 1 14.94 35.94c0 .67-.01 1.34-.05 2h-49.72l-1.55-1.55z" fill="#f9d438"/><path d="m240.09 102h49.72a50.464 50.464 0 0 1 -15.34 34.38l-.16-.16z" fill="#fff27d"/><path d="m238.31 139.23v-39.01l.22.23h.01l1.55 1.55 34.22 34.22.16.16a50.521 50.521 0 0 1 -35.31 14.32l-.3.03q-.54-5.73-.55-11.5z" fill="#f9d438"/><path d="m202.78 64.69a50.53 50.53 0 0 0 -14.32 35.27h-18.46a69.165 69.165 0 1 1 72.09 69.14 120.124 120.124 0 0 1 -3.23-18.37l.3-.03a50.686 50.686 0 0 0 50.65-48.7c.04-.66.05-1.33.05-2a50.7 50.7 0 0 0 -50.7-50.7c-.39 0-.78 0-1.17.02a50.54 50.54 0 0 0 -35.21 15.37z" fill="#edb740"/><path d="m269.97 228.74-17.65-33.25c-.93-1.75-1.82-3.53-2.66-5.32a126.355 126.355 0 0 1 -10.955-39.44c-.36-3.82-.705-7.65-.705-11.5v-39.01l.05-.22h-120.05v42.19a119.911 119.911 0 0 1 -12.43 53.35l-16.44 33.2a101.282 101.282 0 0 0 -5.78 13.05l.34.12c17.06 7.61 25.895 19.79 56.625 19.79 32.14 0 41.683-13.32 61.133-20.79 7.59-2.93 16.7-4.96 29.251-4.96 24.48 0 35.96 7.73 47.861 14.72a102.778 102.778 0 0 0 -8.59-21.93z" fill="#ccd3df"/><path d="m118 142.19a119.911 119.911 0 0 1 -12.43 53.35l-16.44 33.2a101.282 101.282 0 0 0 -5.78 13.05l.34.12c11.149 4.973 18.788 11.9 31.318 16.1-1.391-.726-2.821-1.43-4.318-2.1l-.34-.12a101.282 101.282 0 0 1 5.78-13.05l16.44-33.2a119.911 119.911 0 0 0 12.43-53.35v-56.19h-27z" fill="#d4e1f4"/><g id="_Group_" data-name=" Group "><g id="_Path_5" data-name=" Path 5"><path d="m153.006 40.248h12v209.629h-12z" fill="#b0b5ca" transform="matrix(.914 -.405 .405 .914 -45.121 76.811)"/></g></g><path d="m110.34 15.883a20.378 20.378 0 1 0 20.378 20.378 20.4 20.4 0 0 0 -20.378-20.378z" fill="#6d7486"/><path d="m278.56 250.67a102.355 102.355 0 1 1 -195.19-8.88l.33.12c17.06 7.61 25.89 19.79 56.62 19.79 32.14 0 41.68-13.32 61.13-20.79 7.59-2.93 16.7-4.96 29.25-4.96 24.48 0 35.96 7.73 47.86 14.72z" fill="#ec5d38"/><path d="m134.2 363.1a102.369 102.369 0 0 1 -23.967-106.911c-9.851-4.2-16.874-9.97-26.533-14.279l-.33-.12a102.378 102.378 0 0 0 63.114 131.8 103 103 0 0 1 -12.284-10.49z" fill="#f98a73"/><path d="m349.58 395.97-.04-.01-24.19 94.16h20l24.187-94.15z" fill="#92deff"/><path d="m369.537 395.97.003-.01.15-.57v-29.89h-20v29.89l-.15.57.04.01z" fill="#49bdff"/><path d="m369.69 364.97-20.34-96.3h-20l20.34 96.3v.53h20z" fill="#92deff"/><path d="m369.537 395.97h.043l-.04-.01z" fill="#49bdff"/><path d="m409.98 395.97h.609l-.039-.15z" fill="#3090fc"/></svg>